# Blender v2.82 (sub 7) OBJ File: 'wall-door.blend'
# www.blender.org
mtllib wall-centered.mtl
o wall
v 5.000000 0.000000 0.000000
v 5.000000 -0.000000 0.500000
v -5.000000 -0.000000 0.500000
v -5.000000 0.000000 0.000000
v 5.000000 12.895320 0.500002
v 5.000000 12.895320 0.000002
v -5.000000 12.895320 0.000002
v -5.000000 12.895320 0.500002
vt 0.000000 0.000000
vt 0.000000 1.968504
vt -39.370079 1.968504
vt -39.370079 0.000000
vt 0.000000 1.968504
vt 0.000000 0.000000
vt 39.370079 0.000000
vt 39.370079 1.968504
vt -39.370079 1.968504
vt -39.370079 0.000000
vt 0.000000 0.000000
vt -39.370079 1.968504
vt -39.370079 0.000000
vt 39.370079 1.968504
vt 0.000000 1.968504
vt 39.370079 0.000000
vt 0.000000 1.968504
vt 0.000000 50.768970
vt -39.370079 50.768970
vt -39.370079 0.000000
vt 0.000000 50.768970
vt -39.370079 50.768970
vt -39.370079 0.000000
vt -39.370079 0.000000
vt 0.000000 0.000000
vt 0.000000 50.768970
vt -39.370079 50.768970
vn 0.0000 -1.0000 -0.0000
vn 0.0000 1.0000 0.0000
vn 1.0000 0.0000 0.0000
vn -1.0000 0.0000 0.0000
vn 0.0000 0.0000 -1.0000
vn 0.0000 -0.0000 1.0000
g wall_wall_wood.001
usemtl wood.001
s 1
f 1/1/1 2/2/1 3/3/1
f 3/3/1 4/4/1 1/1/1
f 5/5/2 6/6/2 7/7/2
f 7/7/2 8/8/2 5/5/2
g wall_wall__defaultMat.001
usemtl _defaultMat.001
f 1/9/3 6/10/3 5/11/3
f 5/12/3 2/13/3 1/1/3
f 7/7/4 4/14/4 3/15/4
f 3/16/4 8/8/4 7/17/4
f 1/18/5 4/19/5 7/20/5
f 7/21/5 6/22/5 1/23/5
g wall_wall_metalDark.001
usemtl metalDark.001
f 3/24/6 2/25/6 5/26/6
f 5/26/6 8/27/6 3/24/6
