# Blender v2.83.0 OBJ File: 'props.blend'
# www.blender.org
mtllib mi_esquina.mtl
o wallCornerRond
v 0.000000 -0.000000 0.048715
v 0.000000 1.289532 0.048715
v 0.000000 1.289532 0.550000
v 0.000000 -0.000000 0.550000
v 0.050000 -0.000000 -0.001285
v 0.500000 -0.000000 -0.001285
v 0.500000 1.289532 -0.001285
v 0.050000 1.289532 -0.001285
v 0.043474 -0.000000 -0.000857
v 0.043474 1.289532 -0.000857
v 0.037059 -0.000000 0.000419
v 0.037059 1.289532 0.000419
v 0.030866 -0.000000 0.002521
v 0.030866 1.289532 0.002521
v 0.025000 -0.000000 0.005414
v 0.025000 1.289532 0.005414
v 0.019562 -0.000000 0.009047
v 0.019562 1.289532 0.009048
v 0.014645 -0.000000 0.013360
v 0.014645 1.289532 0.013360
v 0.010332 1.289532 0.018277
v 0.010332 -0.000000 0.018277
v 0.006699 1.289532 0.023715
v 0.006699 -0.000000 0.023715
v 0.003806 1.289532 0.029581
v 0.003806 -0.000000 0.029581
v 0.001704 1.289532 0.035774
v 0.001704 -0.000000 0.035774
v 0.000428 1.289532 0.042189
v 0.000428 -0.000000 0.042189
vt -3.937008 0.000000
vt -3.937008 50.768970
vt -21.653540 50.768970
vt -17.807350 50.768970
vt -18.064840 50.768970
vt -18.064840 0.000000
vt -18.015440 50.768970
vt -18.272940 50.768970
vt -18.272940 0.000000
vt -18.170580 0.000000
vt -17.913080 0.000000
vt -17.913080 50.768970
vt -16.044590 0.000000
vt -15.787100 0.000000
vt -15.787100 50.768970
vt -14.512580 0.000000
vt -14.512580 50.768970
vt -14.770070 50.768970
vt -12.987540 0.000000
vt -12.987540 50.768970
vt -13.245030 50.768970
vt -9.294119 0.000000
vt -9.294119 50.768970
vt -9.551611 50.768970
vt -7.446430 50.768970
vt -7.446430 0.000000
vt -7.188938 0.000000
vt -4.958549 0.000000
vt -4.958549 50.768970
vt -5.216042 50.768970
vt -21.653540 0.000000
vt -17.716539 0.000000
vt 0.000000 0.000000
vt 0.000000 50.768970
vt -17.716539 50.768970
vt -17.807350 0.000000
vt -18.015440 0.000000
vt -18.170580 50.768970
vt -17.759520 0.000000
vt -17.502029 0.000000
vt -17.502029 50.768970
vt -17.759520 50.768970
vt -17.046789 0.000000
vt -16.789301 0.000000
vt -16.789301 50.768970
vt -17.046789 50.768970
vt -16.044590 50.768970
vt -14.770070 0.000000
vt -13.245030 0.000000
vt -11.238070 0.000000
vt -11.238070 50.768970
vt -11.495560 50.768970
vt -11.495560 0.000000
vt -9.551611 0.000000
vt -7.188938 50.768970
vt -5.216042 0.000000
vn 1.0000 0.0000 0.0000
vn 0.0654 -0.0000 0.9979
vn 0.1305 -0.0000 0.9914
vn 0.2588 -0.0000 0.9659
vn 0.3827 -0.0000 0.9239
vn 0.7071 -0.0000 0.7071
vn 0.6088 -0.0000 0.7934
vn 0.7934 -0.0000 0.6088
vn 0.8660 -0.0000 0.5000
vn 0.9239 -0.0000 0.3827
vn 0.9659 -0.0000 0.2588
vn 0.9914 -0.0000 0.1305
vn 0.9979 -0.0000 0.0654
vn 0.0000 -0.0000 1.0000
vn 0.5000 -0.0000 0.8660
g wallCornerRond_wallCornerRond_metalDark.002
usemtl metalDark.002
s 1
f 1/1/1 2/2/1 3/3/1
f 8/4/2 10/5/3 9/6/3
f 10/7/3 12/8/4 11/9/4
f 13/10/5 11/11/4 12/12/4
f 19/13/6 17/14/7 18/15/7
f 19/16/6 20/17/6 21/18/8
f 22/19/8 21/20/8 23/21/9
f 26/22/10 25/23/10 27/24/11
f 29/25/12 30/26/12 28/27/11
f 30/28/12 29/29/12 2/30/13
f 3/3/1 4/31/1 1/1/1
f 5/32/14 6/33/14 7/34/14
f 7/34/14 8/35/14 5/32/14
f 9/6/3 5/36/2 8/4/2
f 11/9/4 9/37/3 10/7/3
f 12/12/4 14/38/5 13/10/5
f 15/39/15 13/40/5 14/41/5
f 14/41/5 16/42/15 15/39/15
f 17/43/7 15/44/15 16/45/15
f 16/45/15 18/46/7 17/43/7
f 18/15/7 20/47/6 19/13/6
f 21/18/8 22/48/8 19/16/6
f 23/21/9 24/49/9 22/19/8
f 24/50/9 23/51/9 25/52/10
f 25/52/10 26/53/10 24/50/9
f 27/24/11 28/54/11 26/22/10
f 28/27/11 27/55/11 29/25/12
f 2/30/13 1/56/13 30/28/12
