# Blender v2.83.0 OBJ File: 'props.blend'
# www.blender.org
mtllib mi_floor.mtl
o floorFull
v 0.500000 -0.041778 -0.500000
v 0.500000 0.008222 -0.500000
v 0.500000 0.008222 0.500000
v 0.500000 -0.041778 0.500000
v -0.500000 0.008222 -0.500000
v -0.500000 0.008222 0.500000
v -0.500000 -0.041778 0.500000
v -0.500000 -0.041778 -0.500000
vt 0.000000 0.000000
vt 0.000000 1.968504
vt -39.370079 1.968504
vt 39.370079 0.000000
vt 39.370079 39.370079
vt 0.000000 39.370079
vt 0.000000 1.968504
vt -39.370079 1.968504
vt -39.370079 0.000000
vt 39.370079 0.000000
vt 39.370079 1.968504
vt 39.370079 0.000000
vt 39.370079 1.968504
vt 0.000000 1.968504
vt -39.370079 0.000000
vt 0.000000 0.000000
vt 0.000000 39.370079
vt -39.370079 39.370079
vt -39.370079 0.000000
vt 0.000000 0.000000
vt 0.000000 0.000000
vn 1.0000 0.0000 0.0000
vn 0.0000 1.0000 0.0000
vn 0.0000 0.0000 1.0000
vn 0.0000 0.0000 -1.0000
vn -1.0000 0.0000 0.0000
vn 0.0000 -1.0000 -0.0000
g floorFull_floorFull_wood.003
usemtl wood.003
s 1
f 1/1/1 2/2/1 3/3/1
f 5/4/2 6/5/2 3/6/2
f 3/7/3 6/8/3 7/9/3
f 1/1/4 8/10/4 5/11/4
f 7/12/5 6/13/5 5/14/5
f 3/3/1 4/15/1 1/1/1
f 3/6/2 2/16/2 5/4/2
f 1/1/6 4/17/6 7/18/6
f 7/18/6 8/19/6 1/1/6
f 7/9/3 4/20/3 3/7/3
f 5/11/4 2/2/4 1/1/4
f 5/14/5 8/21/5 7/12/5
