# Blender v2.83.0 OBJ File: 'props.blend'
# www.blender.org
mtllib mi_puerta.mtl
o wallDoorway
v 0.500000 0.000000 -0.500000
v 0.500000 1.289532 -0.500000
v -0.500000 1.289532 -0.500000
v -0.500000 0.000000 -0.500000
v -0.243000 0.000000 -0.500000
v -0.243000 1.009532 -0.500000
v 0.243000 0.000000 -0.500000
v 0.243000 1.009532 -0.500000
v -0.243000 0.000000 -0.519550
v -0.214650 0.000000 -0.519550
v 0.243000 0.000000 -0.519550
v 0.214650 0.000000 -0.519550
v 0.214650 0.981182 -0.519550
v -0.214650 0.981182 -0.519550
v -0.243000 1.009532 -0.519550
v 0.243000 1.009532 -0.519550
vt 2.738189 0.000000
vt 2.738189 39.745350
vt 1.968504 39.745350
vt 2.738189 0.000000
vt 2.738189 39.745350
vt 1.968504 39.745350
vt 2.738189 0.000000
vt 2.738189 39.745350
vt 2.738189 0.000000
vt 2.738189 39.745350
vt 2.738189 0.000000
vt 2.738189 39.745350
vt 1.968504 39.745350
vt 2.738189 0.000000
vt 1.968504 39.745350
vt 29.251970 39.745350
vt 11.234250 38.629200
vt 28.135830 38.629200
vt 10.118110 39.745350
vt 10.118110 0.000000
vt 11.234250 0.000000
vt -0.769685 39.745350
vt -0.769685 0.000000
vt 0.000000 0.000000
vt 0.000000 39.745350
vt 0.769685 0.000000
vt 0.769685 39.745350
vt 0.000000 39.745350
vt 0.000000 0.000000
vt 28.135830 0.000000
vt 29.251970 0.000000
vt 10.118110 -0.000000
vt 10.118110 -0.769685
vt 29.251970 -0.769685
vt 29.251970 -0.000000
vn 0.0000 0.0000 -1.0000
vn -1.0000 0.0000 0.0000
vn 1.0000 0.0000 0.0000
vn 0.0000 1.0000 0.0000
g wallDoorway_wallDoorway__defaultMat.003
usemtl _defaultMat.003
s 1
f 2/1/1 1/2/1 7/3/1
f 7/4/1 8/5/1 2/6/1
f 8/7/1 6/8/1 2/6/1
f 6/9/1 3/10/1 2/6/1
f 5/11/1 4/12/1 3/13/1
f 3/14/1 6/8/1 5/15/1
g wallDoorway_wallDoorway_wood.004
usemtl wood.004
f 15/16/1 13/17/1 14/18/1
f 16/19/1 11/20/1 12/21/1
f 15/22/2 9/23/2 5/24/2
f 5/24/2 6/25/2 15/22/2
f 11/26/3 16/27/3 8/28/3
f 8/28/3 7/29/3 11/26/3
f 10/30/1 9/31/1 15/16/1
f 15/16/1 14/18/1 10/30/1
f 13/17/1 15/16/1 16/19/1
f 12/21/1 13/17/1 16/19/1
f 8/32/4 16/33/4 15/34/4
f 15/34/4 6/35/4 8/32/4
