# Blender v2.83.0 OBJ File: 'props.blend'
# www.blender.org
mtllib mi_ventana.mtl
o wallWindow
v 0.237000 1.106531 -0.430450
v 0.237000 1.106531 -0.450000
v -0.237000 1.106531 -0.450000
v -0.237000 1.106531 -0.430450
v 0.237000 0.343000 -0.450000
v 0.237000 0.343000 -0.430450
v -0.237000 0.343000 -0.430450
v 0.187292 0.392708 -0.430450
v 0.187292 1.056823 -0.430450
v -0.187292 1.056823 -0.430450
v -0.187292 0.392708 -0.430450
v -0.187292 0.392708 -0.519550
v 0.237000 0.343001 -0.519550
v -0.237000 0.343001 -0.519550
v -0.237000 1.106531 -0.519550
v -0.187292 1.056823 -0.519550
v 0.187292 1.056823 -0.519550
v 0.187292 0.392708 -0.519550
v 0.237000 1.106531 -0.519550
v 0.237000 1.106531 -0.500000
v -0.237000 1.106531 -0.500000
v 0.237000 0.343001 -0.500000
v -0.237000 0.343001 -0.500000
v 0.500000 0.000000 -0.500000
v -0.500000 0.000000 -0.500000
v 0.500000 1.289532 -0.500000
v -0.500000 1.289532 -0.500000
v 0.138073 0.441927 -0.475000
v -0.138073 0.441927 -0.475000
v -0.138073 1.007605 -0.475000
v 0.138073 1.007605 -0.475000
v -0.138073 0.441927 -0.487275
v -0.138073 1.007605 -0.487275
v -0.138073 0.441927 -0.462725
v 0.138073 1.007605 -0.487275
v 0.138073 1.007605 -0.462725
v 0.138073 0.441927 -0.487275
v 0.138073 0.441927 -0.462725
v -0.187292 1.056823 -0.487275
v -0.187292 0.392708 -0.487275
v -0.187292 0.392708 -0.462725
v -0.187292 1.056823 -0.462725
v 0.187292 1.056823 -0.462725
v 0.187292 1.056823 -0.487275
v 0.187292 0.392708 -0.462725
v 0.187292 0.392708 -0.487275
vt 29.015730 13.503960
vt 29.015730 43.564220
vt 27.058720 15.460960
vt 27.058720 41.607220
vt 12.311350 41.607220
vt 12.311350 15.460960
vt 10.354350 43.564220
vt 29.015730 -0.769685
vt 29.015730 0.000000
vt 10.354350 0.000000
vt 0.769685 13.503960
vt 0.769685 43.564220
vt 0.000000 43.564220
vt -10.354350 -0.769685
vt -10.354350 0.000000
vt -29.015730 0.000000
vt 0.000000 13.503960
vt 0.000000 43.564220
vt -0.769685 43.564220
vt 12.311350 2.738189
vt 12.311350 -0.769685
vt 27.058720 -0.769685
vt 27.058720 2.738189
vt -0.769685 41.607220
vt -0.769685 15.460960
vt 2.738189 15.460960
vt 10.354350 2.738189
vt 10.354350 1.968504
vt 29.015730 1.968504
vt -10.354350 1.968504
vt -10.354350 2.738189
vt -29.015730 2.738189
vt 2.738189 13.503960
vt 2.738189 43.564220
vt 1.968504 43.564220
vt -1.968504 13.503960
vt -1.968504 43.564220
vt -2.738189 43.564220
vt 10.354350 13.503960
vt 10.354350 -0.769685
vt 0.000000 13.503960
vt -29.015730 -0.769685
vt -0.769685 13.503960
vt 0.769685 15.460960
vt 0.769685 41.607220
vt -2.738189 41.607220
vt -27.058720 2.738189
vt -27.058720 -0.769685
vt -12.311350 -0.769685
vt 2.738189 41.607220
vt -0.393701 1.937735
vt -0.393701 24.208521
vt -0.876969 24.208521
vt -0.876969 1.937735
vt -1.937735 0.393701
vt -1.937735 0.876969
vt -12.809640 0.876969
vt -12.809640 0.393701
vt 0.393701 24.208521
vt 0.393701 1.937735
vt 0.876969 1.937735
vt 0.876969 24.208521
vt 1.360236 1.937735
vt 1.360236 24.208521
vt 1.937735 0.876969
vt 1.937735 0.393701
vt 12.809640 0.393701
vt 12.809640 0.876969
vt 1.937735 1.360236
vt 12.809640 1.360236
vt 0.393701 26.146259
vt 0.393701 0.000000
vt 1.360236 0.000000
vt 1.360236 26.146259
vt 0.000000 1.360236
vt 0.000000 0.393701
vt 14.747370 0.393701
vt 14.747370 1.360236
vt 12.809640 1.937735
vt 0.000000 0.000000
vt 14.747370 0.000000
vt 14.747370 26.146259
vt 12.809640 24.208521
vt 1.937735 24.208521
vt 1.937735 1.937735
vt 0.000000 26.146259
vt 0.000000 0.393701
vt 0.000000 1.360236
vt -14.747370 1.360236
vt -14.747370 0.393701
vt -0.393701 0.000000
vt -0.393701 26.146259
vt -1.360236 26.146259
vt -1.360236 0.000000
vt -29.015730 43.564220
vt 0.000000 50.768970
vt -39.370079 50.768970
vt 0.000000 50.768970
vt -39.370079 50.768970
vt -29.015730 43.564220
vt 0.000000 50.768970
vt -39.370079 50.768970
vt -39.370079 50.768970
vt -29.015730 43.564220
vt 0.000000 50.768970
vt -39.370079 50.768970
vt -29.015730 43.564220
vt 0.000000 50.768970
vt -29.015730 43.564220
vt 0.000000 50.768970
vt -39.370079 50.768970
vt -29.015730 43.564220
vn -0.0000 0.0000 -1.0000
vn 0.0000 1.0000 0.0000
vn 1.0000 0.0000 0.0000
vn 0.0000 -1.0000 0.0000
vn -1.0000 0.0000 0.0000
g wallWindow_wallWindow_wood
usemtl wood
s 1
f 14/1/1 15/2/1 12/3/1
f 15/2/1 16/4/1 12/3/1
f 15/2/1 17/5/1 16/4/1
f 18/6/1 17/5/1 19/7/1
f 15/8/2 21/9/2 20/10/2
f 13/11/3 19/12/3 20/13/3
f 13/14/4 22/15/4 23/16/4
f 23/17/5 21/18/5 15/19/5
f 8/20/2 18/21/2 12/22/2
f 12/22/2 11/23/2 8/20/2
f 17/24/5 18/25/5 8/26/5
f 1/27/2 2/28/2 3/29/2
f 5/30/4 6/31/4 7/32/4
f 7/33/5 4/34/5 3/35/5
f 5/36/3 2/37/3 1/38/3
f 12/3/1 13/39/1 14/1/1
f 13/39/1 12/3/1 18/6/1
f 18/6/1 19/7/1 13/39/1
f 17/5/1 15/2/1 19/7/1
f 20/10/2 19/40/2 15/8/2
f 20/13/3 22/41/3 13/11/3
f 23/16/4 14/42/4 13/14/4
f 15/19/5 14/43/5 23/17/5
f 12/44/3 16/45/3 10/46/3
f 10/47/4 16/48/4 17/49/4
f 8/26/5 9/50/5 17/24/5
f 32/51/3 33/52/3 30/53/3
f 30/53/3 29/54/3 32/51/3
f 35/55/4 31/56/4 30/57/4
f 30/57/4 33/58/4 35/55/4
f 35/59/5 37/60/5 28/61/5
f 28/61/5 31/62/5 35/59/5
f 38/63/5 36/64/5 31/62/5
f 28/65/2 37/66/2 32/67/2
f 32/67/2 29/68/2 28/65/2
f 38/69/2 28/65/2 29/68/2
f 29/68/2 34/70/2 38/69/2
f 39/71/5 40/72/5 41/73/5
f 41/73/5 42/74/5 39/71/5
f 43/75/2 44/76/2 39/77/2
f 39/77/2 42/78/2 43/75/2
f 32/79/1 46/80/1 40/81/1
f 40/81/1 39/82/1 32/79/1
f 39/82/1 33/83/1 32/79/1
f 39/82/1 35/84/1 33/83/1
f 46/80/1 32/79/1 37/85/1
f 37/85/1 44/86/1 46/80/1
f 37/85/1 35/84/1 44/86/1
f 35/84/1 39/82/1 44/86/1
f 46/87/4 45/88/4 41/89/4
f 41/89/4 40/90/4 46/87/4
f 46/91/3 44/92/3 43/93/3
f 43/93/3 45/94/3 46/91/3
g wallWindow_wallWindow__defaultMat
usemtl _defaultMat
f 27/95/1 21/96/1 23/97/1
f 27/95/1 20/98/1 21/99/1
f 22/100/1 26/101/1 24/102/1
f 22/100/1 20/98/1 26/103/1
f 23/104/1 24/105/1 25/106/1
f 25/107/1 27/108/1 23/97/1
f 24/109/1 23/110/1 22/111/1
f 20/112/1 27/108/1 26/103/1
